<?xml version="1.0" standalone="no"?>
<!DOCTYPE svg PUBLIC "-//W3C//DTD SVG 20010904//EN"
 "http://www.w3.org/TR/2001/REC-SVG-20010904/DTD/svg10.dtd">
<svg version="1.0" xmlns="http://www.w3.org/2000/svg"
 width="600.000000pt" height="600.000000pt" viewBox="0 0 600.000000 600.000000"
 preserveAspectRatio="xMidYMid meet">
<metadata>
Created by potrace 1.14, written by Peter Selinger 2001-2017
</metadata>
<g transform="translate(0.000000,600.000000) scale(0.100000,-0.100000)"
fill="#000000" stroke="none">
<path d="M2818 5996 c-1 -2 -41 -6 -88 -10 -213 -16 -435 -62 -670 -138 -52
-17 -101 -35 -107 -41 -7 -5 -13 -6 -13 -2 0 4 -6 3 -12 -2 -7 -6 -31 -16 -53
-23 -57 -19 -251 -112 -347 -167 -161 -91 -349 -223 -488 -342 -138 -118 -346
-340 -433 -461 -9 -14 -36 -52 -60 -85 -74 -104 -133 -201 -212 -350 -20 -38
-41 -76 -47 -82 -6 -7 -8 -13 -4 -13 3 0 -6 -24 -20 -52 -26 -52 -134 -338
-134 -356 0 -5 -9 -37 -19 -70 -25 -77 -77 -336 -86 -427 -4 -38 -10 -79 -12
-90 -9 -37 -11 -479 -2 -540 4 -33 11 -89 15 -125 3 -36 8 -74 10 -85 2 -11 8
-45 14 -75 11 -63 17 -95 24 -118 3 -9 7 -29 10 -43 5 -31 73 -260 93 -314 8
-22 24 -62 35 -90 11 -27 25 -63 31 -80 25 -64 150 -301 213 -402 329 -532
851 -971 1419 -1192 44 -18 89 -36 100 -40 52 -23 324 -101 399 -115 282 -52
368 -61 621 -61 201 0 302 7 453 29 767 117 1475 536 1935 1146 32 41 61 80
67 87 5 6 28 40 50 75 22 35 43 68 48 73 39 49 201 375 250 505 37 97 104 311
116 370 3 14 8 36 11 50 12 51 36 176 41 215 3 22 7 51 10 65 24 145 24 609
-1 760 -2 14 -11 70 -19 125 -60 383 -229 809 -463 1161 -292 439 -710 804
-1186 1033 -292 140 -646 245 -932 277 -33 3 -69 8 -80 11 -22 5 -471 13 -477
9z"/>
</g>
</svg>
